<svg xmlns="http://www.w3.org/2000/svg" viewBox="0 0 120 120">
  <g transform="translate(60 60) scale(0.455) translate(-60 -60)">
    <path fill="#F6A006" d="m102.8 8.9c-0.9 6-1.3 12.5-6.3 15.1-4.5 2.2-9.6 3.1-15.5 4.7-4.9 1.3-7 3.7-7.6 8.2-1.5 10.6-4.2 29.4-6.1 39.8-0.7 4.1-2.1 8.3-5.3 11.4s-6.9 4.7-11.1 4.7c-8.2 0-15.6-6-15.7-16.9 0.1-9.8 8.1-16.8 16.1-16.9 1.6 0 3.2 0 5 0.6 0.1 0.1 0.1 0.1 0.1 0.3l-1.4 9.1c0 0.2-0.1 0.2-0.3 0.2-1.1-0.4-1.9-0.6-3.1-0.6-3.5 0-6.8 2.9-6.8 6.9 0.1 3.9 2.7 7.1 6.6 7.1s6-2.8 6.6-6.7c1.9-11.6 5.6-35.2 7.7-49.7 0.6-4 3.3-7.6 7-8.7 2.4-0.8 8.1-2 13.4-3.2 5.8-1.3 10.9-3.1 16.6-5.2 0.1-0.1 0.1-0.1 0.1-0.2z"/>
    <path fill="#F6A006" d="m54.2 52.7c-3.2-0.2-4.7-0.3-9.5 1.1-0.4 0.1-0.4-0.1-0.4-0.2 0.6-4.2 1.6-12 1.7-14.7 0-2.2-0.8-3.6-2.8-3.6-0.8 0.1-1.8 0.5-2.3 1.8-1 2.7-4.8 16-7 22.6-1.7 4.8-5.2 8.2-5.2 16.1 0 9.7 6.8 23.1 23 23.1 11.3 0 20-7.3 24.7-15.4 0.8-1.6 1.5-1.6 1.6 0.2 2 11-9.2 24-26.5 24-17.6 0-31.5-13.4-31.7-31.8 0-6.9 2.1-11.8 3.8-16 2-4.9 5.8-18 7.9-25 1.9-5.4 5.4-9.1 11.6-9.1 7.4-0.1 12.5 4.9 12.4 12.7 0 2.5-1.1 12.2-1.3 14.2z"/>
  </g>
</svg>
