<svg xmlns="http://www.w3.org/2000/svg" viewBox="0 0 600 600" fill="none">
  <defs>
    <linearGradient id="cover-bg" x1="0" y1="0" x2="600" y2="600" gradientUnits="userSpaceOnUse">
      <stop stop-color="#D8CCBB"/>
      <stop offset="1" stop-color="#B79F83"/>
    </linearGradient>
  </defs>
  <rect width="600" height="600" fill="url(#cover-bg)"/>
  <rect x="72" y="72" width="456" height="456" rx="14" fill="#EFE8DC" fill-opacity="0.22"/>
  <circle cx="300" cy="300" r="148" fill="#F5EFE4" fill-opacity="0.85"/>
  <circle cx="300" cy="300" r="40" fill="#C7B299"/>
  <path d="M372 174V346.5C372 381.57 343.57 410 308.5 410C273.43 410 245 381.57 245 346.5C245 311.43 273.43 283 308.5 283C322.35 283 335.17 287.44 345.62 294.98V222L456 194V366.5C456 401.57 427.57 430 392.5 430C357.43 430 329 401.57 329 366.5C329 331.43 357.43 303 392.5 303C406.35 303 419.17 307.44 429.62 314.98V226.5L372 241.2V174Z" fill="#8A755D" fill-opacity="0.85"/>
</svg>
