<svg xmlns="http://www.w3.org/2000/svg" width="1024" height="1024" viewBox="0 0 1024 1024">
  <g transform="translate(512 512) scale(6.8266666667) translate(-60 -60)">
    <path fill="#FFFFFF" d="m54.2 52.7c-3.2-0.2-4.7-0.3-9.5 1.1-0.4 0.1-0.4-0.1-0.4-0.2 0.6-4.2 1.6-12 1.7-14.7 0-2.2-0.8-3.6-2.8-3.6-0.8 0.1-1.8 0.5-2.3 1.8-1 2.7-4.8 16-7 22.6-1.7 4.8-5.2 8.2-5.2 16.1 0 9.7 6.8 23.1 23 23.1 11.3 0 20-7.3 24.7-15.4 0.8-1.6 1.5-1.6 1.6 0.2 2 11-9.2 24-26.5 24-17.6 0-31.5-13.4-31.7-31.8 0-6.9 2.1-11.8 3.8-16 2-4.9 5.8-18 7.9-25 1.9-5.4 5.4-9.1 11.6-9.1 7.4-0.1 12.5 4.9 12.4 12.7 0 2.5-1.1 12.2-1.3 14.2z"/>
  </g>
</svg>
